<?xml version="1.0" encoding="UTF-8"?>
<svg width="111px" height="29px" viewBox="0 0 111 29" version="1.1" xmlns="http://www.w3.org/2000/svg" xmlns:xlink="http://www.w3.org/1999/xlink">
    <!-- Generator: Sketch 63.1 (92452) - https://sketch.com -->
    <title>Group 30</title>
    <desc>Created with Sketch.</desc>
    <defs>
        <polygon id="path-1" points="0.700514085 0.649521622 19.366085 0.649521622 19.366085 28.2162162 0.700514085 28.2162162"></polygon>
    </defs>
    <g id="Page-1" stroke="none" stroke-width="1" fill="none" fill-rule="evenodd">
        <g id="Home" transform="translate(-442.000000, -835.000000)">
            <g id="Group-11" transform="translate(59.000000, 828.000000)">
                <g id="Group-30" transform="translate(383.277778, 7.000000)">
                    <path d="M8.1208662,13.8189703 L5.95959859,13.8189703 L5.95882394,27.3988081 L8.51128873,27.3988081 C11.1536127,27.3988081 12.6726972,24.8844297 12.7191761,20.8949703 C12.7741761,16.1961865 10.9436831,13.8189703 8.1208662,13.8189703 M7.49107746,1.15224054 L5.95959859,1.14361892 L5.95959859,13.3918081 L8.39121831,13.3918081 C10.492838,13.3918081 12.2141056,11.1588081 12.2025444,7.26261892 C12.1885423,2.9134027 10.2829085,1.15224054 7.49107746,1.15224054 M9.26192254,27.6488351 L0.0451619718,27.6488351 C-0.0144859155,27.6488351 -0.0144859155,27.3988081 0.0451619718,27.3988081 L2.68128873,27.3988081 L2.68671127,1.14753784 L0.0451619718,1.15224054 L0.0451619718,0.884186486 L7.94114789,0.884186486 C11.3031197,0.884186486 15.5009366,1.54334865 15.6512183,7.11134865 C15.7984014,12.6001865 11.2093873,13.6089162 9.10776761,13.6089162 C12.4705141,13.6089162 16.5800211,16.1483757 16.5800211,20.6668892 C16.5800211,24.2738622 13.6154437,27.6488351 9.26192254,27.6488351" id="Fill-1" fill="#010202"></path>
                    <path d="M23.4886408,5.96616216 L19.919838,19.448027 L26.7181479,19.448027 L23.4886408,5.96616216 Z M26.1069507,27.6095676 L26.1069507,27.4175405 L29.0010352,27.4191081 L26.8792746,19.7372432 L19.922162,19.7372432 L18.4425845,25.2550811 C18.1125845,26.622 17.9623028,27.4175405 17.9623028,27.4175405 L20.7781479,27.4175405 L20.7781479,27.6095676 L15.0201901,27.6095676 L15.0201901,27.4175405 L17.6679366,27.4175405 C17.6679366,27.4175405 17.8127958,26.7364324 18.173007,25.2550811 L24.8380775,0 L32.5024437,27.4206757 L35.1656831,27.4238108 L35.1656831,27.6095676 L26.1069507,27.6095676 Z" id="Fill-3" fill="#010202"></path>
                    <path d="M37.0638803,27.6098027 L48.376838,0.958018919 L42.9070493,0.958018919 C38.8858521,1.01993784 37.7525423,5.99618108 37.6835986,11.2702622 C37.6743028,11.9764514 37.6185282,12.9075865 37.585993,13.9508027 C37.585993,13.9508027 37.4031761,13.9617757 37.4031761,13.9327757 L37.4163451,0.688397297 L51.7945845,0.688397297 L40.6458521,27.4216946 L45.626838,27.4279649 C50.4343028,27.2688568 51.388669,23.7504514 51.5590915,13.9531541 L51.7790915,13.9531541 L51.7790915,27.6035324 L37.0638803,27.6098027 Z" id="Fill-5" fill="#010202"></path>
                    <g id="Group-9" transform="translate(90.633803, 0.019359)">
                        <mask id="mask-2" fill="white">
                            <use xlink:href="#path-1"></use>
                        </mask>
                        <g id="Clip-8"></g>
                        <path d="M8.57403521,0.938737838 L6.62037324,0.938737838 L6.62192254,13.4541973 L9.0543169,13.4541973 C11.7857254,13.4541973 13.1034014,11.7267378 13.2931901,7.40808919 C13.5015704,2.6661973 11.1559366,0.938737838 8.57403521,0.938737838 M18.3671338,27.8946297 C17.9054437,28.1258459 17.3515704,28.2159811 16.7031901,28.2167649 C13.9857254,28.2167649 13.0545986,26.1985216 13.1645986,20.8499811 L13.1645986,18.3818459 C13.1645986,15.0397919 11.5757958,13.8805757 9.0543169,13.8805757 L6.62192254,13.8805757 L6.62889437,27.4204405 L9.76311972,27.4204405 L9.76466901,27.570927 L0.708260563,27.570927 L0.700514085,27.4282784 L3.36297887,27.4243595 L3.34980986,0.914440541 L0.708260563,0.919143243 L0.708260563,0.649521622 L9.23480986,0.649521622 C13.3768521,0.649521622 16.8031197,1.79306216 16.8085423,7.25603514 C16.8131901,11.8733054 13.1111479,13.6376027 10.2294577,13.6376027 C14.4923451,13.6376027 17.0200211,15.4457919 16.5273451,20.9260081 L16.4305141,24.3425216 C16.4305141,26.2792514 16.6791761,27.7096568 17.7737535,27.7041703 C18.1215704,27.7018189 18.4593169,27.6195216 18.6893873,27.3624405 C18.9349507,27.0865486 19.0759366,26.6601703 19.1076972,26.3889811 C19.1239648,26.2479 19.1843873,25.9163595 19.1479789,25.5503324 C19.1479789,25.5503324 19.1634718,21.6055486 19.1479789,21.5867378 C19.1603732,21.6008459 19.3594577,21.5867378 19.3594577,21.5867378 L19.3548099,24.0446838 C19.3795986,26.2471162 19.3780493,26.5167378 19.1952324,26.9556568 C19.075162,27.2440892 18.8218521,27.6665486 18.3671338,27.8946297" id="Fill-7" fill="#010202" mask="url(#mask-2)"></path>
                    </g>
                    <path d="M61.4626549,5.97227568 L57.8938521,19.4533568 L64.6929366,19.4533568 L61.4626549,5.97227568 Z M64.0809648,27.6156811 L64.0809648,27.4314919 L66.9750493,27.4330595 L64.8532887,19.7433568 L57.8961761,19.7433568 L56.4173732,25.2611946 C56.0873732,26.6281135 55.9363169,27.4236541 55.9363169,27.4236541 L58.7529366,27.4236541 L58.7529366,27.6156811 L52.9949789,27.6156811 L52.9949789,27.4236541 L55.6419507,27.4236541 C55.6419507,27.4236541 55.7875845,26.7425459 56.1477958,25.2611946 L62.8128662,0.00611351351 L70.4772324,27.4307081 L73.1396972,27.4338432 L73.1396972,27.6156811 L64.0809648,27.6156811 Z" id="Fill-10" fill="#010202"></path>
                    <path d="M80.154831,5.97956486 L76.5860282,19.4614297 L83.384338,19.4614297 L80.154831,5.97956486 Z M82.7731408,27.6229703 L82.7731408,27.431727 L85.6672254,27.4332946 L83.5454648,19.7506459 L76.5883521,19.7506459 L75.1087746,25.2692676 C74.7795493,26.6354027 74.6277183,27.431727 74.6277183,27.431727 L77.4451127,27.431727 L77.4451127,27.6229703 L71.6863803,27.6229703 L71.6863803,27.4356459 L74.3333521,27.431727 C74.3333521,27.431727 74.4789859,26.7498351 74.8399718,25.2692676 L81.5042676,0.0134027027 L89.1686338,27.4340784 L91.8310986,27.4364297 L91.8310986,27.6229703 L82.7731408,27.6229703 Z" id="Fill-12" fill="#010202"></path>
                    <polygon id="Fill-14" fill="#010202" points="66.3480493 2.05108378 66.3480493 3.36862432 66.7485423 3.36862432 66.7485423 3.47678649 65.4300915 3.47678649 65.4300915 3.36862432 65.8305845 3.36862432 65.8305845 0.707678378 65.4300915 0.707678378 65.4300915 0.599516216 66.7485423 0.599516216 66.7485423 0.707678378 66.3480493 0.707678378 66.3480493 1.94292162 67.4232606 1.94292162 67.4232606 0.707678378 67.0227676 0.707678378 67.0227676 0.599516216 68.3404437 0.599516216 68.3404437 0.707678378 67.9407254 0.707678378 67.9407254 3.36862432 68.3404437 3.36862432 68.3404437 3.47678649 67.0227676 3.47678649 67.0227676 3.36862432 67.4232606 3.36862432 67.4232606 2.05108378"></polygon>
                    <path d="M69.5495141,2.61517297 C69.2993028,2.61517297 68.9631056,2.64965946 68.9631056,2.99844324 C68.9631056,3.18811892 69.0366972,3.32998378 69.2257113,3.32998378 C69.3674718,3.32998378 69.4728239,3.21398378 69.5208521,3.07603784 C69.5456408,3.01098378 69.5495141,2.93417297 69.5495141,2.85187568 L69.5495141,2.61517297 Z M69.5495141,1.98657838 C69.5495141,1.8744973 69.3512042,1.83138919 69.2822606,1.83138919 C69.1288803,1.83138919 68.9390915,1.9129027 68.9995141,1.9952 C69.0235282,2.0289027 69.0560634,2.11982162 69.0560634,2.20211892 C69.0560634,2.31341622 68.9553592,2.39101081 68.8624014,2.39101081 C68.7493028,2.39101081 68.6524718,2.32674054 68.6524718,2.18879459 C68.6524718,1.86195676 69.0490915,1.74517297 69.2946549,1.74517297 C69.4689507,1.74517297 69.6548662,1.77495676 69.8121197,1.86195676 C69.9252183,1.92152432 69.9616268,1.99128108 69.9616268,2.12452432 L69.9616268,3.26963243 C69.9616268,3.32606486 70.0104296,3.35114595 70.0584577,3.35114595 C70.1072606,3.35114595 70.1676831,3.28687568 70.2002183,3.25238919 L70.2482465,3.31274054 C70.143669,3.45068649 70.0344437,3.54082162 69.8640211,3.54082162 C69.6874014,3.54082162 69.5735282,3.42482162 69.5495141,3.23514595 C69.4046549,3.42482162 69.1854296,3.54082162 68.9592324,3.54082162 C68.7175423,3.54082162 68.5393732,3.39895676 68.5393732,3.12306486 C68.5393732,2.61125405 69.1854296,2.50309189 69.5495141,2.52503784 L69.5495141,1.98657838 Z" id="Fill-16" fill="#010202"></path>
                    <path d="M71.0617817,2.23174595 C71.1911479,1.99504324 71.3329085,1.74501622 71.6272746,1.74501622 C71.7853028,1.74501622 71.9503028,1.83123243 71.9503028,2.02482703 C71.9503028,2.19334054 71.8418521,2.26623243 71.6962183,2.26623243 C71.5993873,2.26623243 71.5017817,2.1760973 71.5017817,2.06871892 C71.5017817,2.05147568 71.5064296,2.02482703 71.5103028,2.00366486 C71.5226972,1.93469189 71.5265704,1.90882703 71.4824155,1.90882703 C71.4049507,1.90882703 71.3654437,1.95193514 71.311993,2.00836757 C71.1586127,2.17139459 71.0617817,2.40417838 71.0617817,2.9685027 L71.0617817,3.36901622 L71.4258662,3.36901622 L71.4258662,3.47639459 L70.3870634,3.47639459 L70.3870634,3.36901622 L70.6256549,3.36901622 L70.6256549,1.87904324 L70.3591761,1.87904324 L70.3591761,1.77088108 C70.568331,1.7795027 70.8154437,1.76225946 71.0617817,1.75363784 L71.0617817,2.23174595 Z" id="Fill-18" fill="#010202"></path>
                    <path d="M73.4870493,2.20603784 C73.4870493,1.97403784 73.4258521,1.83138919 73.1802887,1.83138919 C72.9409225,1.83138919 72.7069789,2.16292973 72.7069789,2.32674054 L72.7069789,2.88636216 C72.7069789,3.16695676 72.895993,3.45460541 73.1717676,3.45460541 C73.3739507,3.45460541 73.4870493,3.34722703 73.4870493,3.12776757 L73.4870493,2.20603784 Z M72.7069789,2.10257838 L72.7147254,2.10257838 C72.799162,1.90428108 73.0013451,1.74517297 73.2120493,1.74517297 C73.6528239,1.74517297 73.967331,2.18409189 73.967331,2.63633514 C73.967331,3.07133514 73.6481761,3.54082162 73.2120493,3.54082162 C72.9935986,3.54082162 72.8076831,3.45068649 72.7147254,3.23514595 L72.7069789,3.23514595 L72.7069789,4.37711892 L72.9897254,4.37711892 L72.9897254,4.4844973 L71.9795845,4.4844973 L71.9795845,4.37711892 L72.2708521,4.37711892 L72.2708521,1.8792 L71.9757113,1.8792 L71.9757113,1.77103784 C72.2135282,1.77965946 72.4606408,1.76241622 72.7069789,1.75379459 L72.7069789,2.10257838 Z" id="Fill-20" fill="#010202"></path>
                    <path d="M75.2368239,2.41695405 C75.2368239,2.12852162 75.3057676,1.83146757 74.946331,1.83146757 C74.6101338,1.83146757 74.6473169,2.14576486 74.6473169,2.41695405 L75.2368239,2.41695405 Z M74.6473169,2.52511622 L74.6473169,2.8691973 C74.6473169,3.17095405 74.6635845,3.45468378 75.0067535,3.45468378 C75.2980211,3.45468378 75.5195704,3.23130541 75.6009085,2.93817027 L75.7023873,2.93817027 C75.5970352,3.35592703 75.3173873,3.5409 74.9261901,3.5409 C74.4854155,3.5409 74.1662606,3.08865676 74.1662606,2.64973784 C74.1662606,2.17554865 74.5303451,1.74525135 74.9703451,1.74525135 C75.3468239,1.74525135 75.6938662,2.02114324 75.6938662,2.44752162 C75.6938662,2.53765676 75.6574577,2.52511622 75.593162,2.52511622 L74.6473169,2.52511622 Z" id="Fill-22" fill="#010202"></path>
                    <path d="M76.5349789,2.23174595 C76.6635704,1.99504324 76.8061056,1.74501622 77.0996972,1.74501622 C77.2585,1.74501622 77.4235,1.83123243 77.4235,2.02482703 C77.4235,2.19334054 77.3150493,2.26623243 77.1686408,2.26623243 C77.0718099,2.26623243 76.9749789,2.1760973 76.9749789,2.06871892 C76.9749789,2.05147568 76.9788521,2.02482703 76.9835,2.00366486 C76.9951197,1.93469189 76.9997676,1.90882703 76.954838,1.90882703 C76.8781479,1.90882703 76.8378662,1.95193514 76.7851901,2.00836757 C76.6318099,2.17139459 76.5349789,2.40417838 76.5349789,2.9685027 L76.5349789,3.36901622 L76.8982887,3.36901622 L76.8982887,3.47639459 L75.8594859,3.47639459 L75.8594859,3.36901622 L76.0988521,3.36901622 L76.0988521,1.87904324 L75.8315986,1.87904324 L75.8315986,1.77088108 C76.0415282,1.7795027 76.2886408,1.76225946 76.5349789,1.75363784 L76.5349789,2.23174595 Z" id="Fill-24" fill="#010202"></path>
                    <path d="M78.1591831,1.39591892 C78.1591831,1.69767568 77.9655211,1.95554054 77.7393239,2.11543243 C77.7029155,2.12797297 77.6618592,2.11072973 77.6618592,2.0637027 C77.6618592,2.04645946 77.7269296,1.99472973 77.7393239,1.98610811 C77.8849577,1.88264865 78.0422113,1.61145946 78.0422113,1.43432432 C78.0422113,1.39983784 78.0259437,1.25797297 77.9732676,1.25797297 C77.9244648,1.25797297 77.917493,1.28854054 77.9089718,1.32694595 C77.8880563,1.42178378 77.8036197,1.48683784 77.6943944,1.48683784 C77.5572817,1.48683784 77.4720704,1.35281081 77.4720704,1.21564865 C77.4720704,1.03851351 77.6053099,0.926432432 77.7672113,0.926432432 C78.0259437,0.926432432 78.1591831,1.14197297 78.1591831,1.39591892" id="Fill-26" fill="#010202"></path>
                    <path d="M78.2317676,3.47662973 L78.1666972,3.47662973 L78.1666972,2.86057568 L78.2766972,2.86057568 C78.3162042,3.16625135 78.4819789,3.45468378 78.7895141,3.45468378 C78.9669085,3.45468378 79.1566972,3.32614324 79.1566972,3.1106027 C79.1566972,2.89506216 78.9707817,2.87311622 78.7616268,2.84333243 C78.3448662,2.78298108 78.186838,2.60192703 78.186838,2.27038649 C78.186838,1.94276486 78.3975423,1.74525135 78.6965563,1.74525135 C78.8375423,1.74525135 78.9793028,1.79306216 79.0924014,1.8831973 L79.1566972,1.77111622 L79.2256408,1.77111622 L79.2256408,2.27900811 L79.1202887,2.27900811 C79.0962746,2.04622432 78.9227535,1.83146757 78.6965563,1.83146757 C78.5385282,1.83146757 78.3696549,1.93022432 78.3696549,2.12852162 C78.3696549,2.25784595 78.3890211,2.30487297 78.7531056,2.36992703 C79.1202887,2.4341973 79.330993,2.50317027 79.330993,2.94679189 C79.330993,3.36062973 79.1171901,3.5409 78.7531056,3.5409 C78.6198662,3.5409 78.4455704,3.45938649 78.3487394,3.36062973 L78.2317676,3.47662973 Z" id="Fill-28" fill="#010202"></path>
                </g>
            </g>
        </g>
    </g>
</svg>