<?xml version="1.0" encoding="UTF-8"?>
<svg width="118px" height="30px" viewBox="0 0 118 30" version="1.1" xmlns="http://www.w3.org/2000/svg" xmlns:xlink="http://www.w3.org/1999/xlink">
    <!-- Generator: Sketch 63.1 (92452) - https://sketch.com -->
    <title>Group 46</title>
    <desc>Created with Sketch.</desc>
    <defs>
        <polygon id="path-1" points="0 0.1902 21.0069132 0.1902 21.0069132 16.2273429 0 16.2273429"></polygon>
    </defs>
    <g id="Page-1" stroke="none" stroke-width="1" fill="none" fill-rule="evenodd">
        <g id="Home" transform="translate(-248.000000, -836.000000)">
            <g id="Group-11" transform="translate(59.000000, 828.000000)">
                <g id="Group-46" transform="translate(189.000000, 8.000000)">
                    <polygon id="Fill-1" fill="#000000" points="4.47460989 5.54151429 4.47460989 3.26408571 3.76794323 5.54151429 3.29683212 5.54151429 2.59102514 3.26408571 2.56695377 3.26408571 2.56695377 5.54151429 2.00213625 5.54151429 2.00213625 2.3478 2.84979238 2.3478 3.53238767 4.60208571 4.21584266 2.3478 5.06349878 2.3478 5.06349878 5.54151429"></polygon>
                    <path d="M7.98387186,5.54151429 L7.77152798,4.8138 L6.66510462,4.8138 L6.45276075,5.54151429 L5.81658881,5.54151429 L6.87658881,2.3478 L7.58325547,2.3478 L8.64325547,5.51837143 L7.98387186,5.51837143 L7.98387186,5.54151429 Z M7.22992214,3.02922857 L7.22992214,3.02922857 L6.83016545,4.29694286 L7.63053852,4.29694286 L7.22992214,3.02922857 Z" id="Fill-3" fill="#000000"></path>
                    <path d="M11.1632701,4.20308571 L11.752159,5.54194286 L11.0919157,5.54194286 L10.5511695,4.29651429 L10.0095637,4.29651429 L10.0095637,5.54194286 L9.37339173,5.54194286 L9.37339173,2.34822857 L10.5975929,2.34822857 C11.4693204,2.34822857 11.7753706,2.7708 11.7753706,3.33394286 C11.7753706,3.80365714 11.5166034,4.06165714 11.1632701,4.20308571 M10.5975929,2.88822857 L10.0095637,2.88822857 L10.0095637,3.78051429 L10.5975929,3.78051429 C10.9509262,3.78051429 11.1632701,3.66308571 11.1632701,3.33394286 C11.1632701,3.0288 10.9749976,2.88822857 10.5975929,2.88822857" id="Fill-5" fill="#000000"></path>
                    <polygon id="Fill-7" fill="#000000" points="13.8241882 2.91154286 13.8241882 5.54125714 13.1888759 5.54125714 13.1888759 2.91154286 12.2939367 2.91154286 12.2939367 2.3484 14.7191273 2.3484 14.7191273 2.91154286"></polygon>
                    <polygon id="Fill-9" fill="#000000" points="17.3334501 5.54151429 17.3334501 4.15637143 16.1324607 4.15637143 16.1324607 5.54151429 15.4962887 5.54151429 15.4962887 2.3478 16.1324607 2.3478 16.1324607 3.61551429 17.3334501 3.61551429 17.3334501 2.3478 17.9455507 2.3478 17.9455507 5.54151429"></polygon>
                    <path d="M20.9603179,5.54151429 L20.747974,4.8138 L19.6415507,4.8138 L19.4292068,5.54151429 L18.7930349,5.54151429 L19.8530349,2.3478 L20.5597015,2.3478 L21.6197015,5.51837143 L20.9603179,5.51837143 L20.9603179,5.54151429 Z M20.2072279,3.02922857 L20.2072279,3.02922857 L19.8066115,4.29694286 L20.6069846,4.29694286 L20.2072279,3.02922857 Z" id="Fill-11" fill="#000000"></path>
                    <path d="M24.4221249,5.5884 C23.7395296,5.5884 23.3861963,5.28325714 23.1979238,4.86068571 L23.7154582,4.64897143 C23.8573074,4.90782857 24.0455799,5.07154286 24.4221249,5.07154286 C24.7986699,5.07154286 24.9878021,4.93097143 24.9878021,4.67297143 C24.9878021,4.41411429 24.7986699,4.32068571 24.3748418,4.17925714 C23.7154582,3.9684 23.2684185,3.80382857 23.2684185,3.19354286 C23.2684185,2.62954286 23.7395296,2.30125714 24.3748418,2.30125714 C24.9878021,2.30125714 25.3170641,2.55925714 25.5053366,2.8884 L25.0110138,3.1464 C24.845953,2.93468571 24.6576805,2.81811429 24.3989132,2.81811429 C24.0215085,2.81811429 23.8805191,2.95868571 23.8805191,3.16954286 C23.8805191,3.38125714 24.0215085,3.47554286 24.4694079,3.61611429 C25.269781,3.85097143 25.5999027,4.10897143 25.5999027,4.64897143 C25.5999027,5.18897143 25.2233577,5.5884 24.4221249,5.5884" id="Fill-13" fill="#000000"></path>
                    <polygon id="Fill-15" fill="#000000" points="27.5779676 2.91154286 27.5779676 5.54125714 26.9417956 5.54125714 26.9417956 2.91154286 26.0468564 2.91154286 26.0468564 2.3484 28.4729067 2.3484 28.4729067 2.91154286"></polygon>
                    <polygon id="Fill-17" fill="#000000" points="29.1559319 5.54151429 29.1559319 2.3478 31.2750722 2.3478 31.2750722 2.9118 29.7921038 2.9118 29.7921038 3.59237143 30.7807494 3.59237143 30.7807494 4.13237143 29.7921038 4.13237143 29.7921038 4.97751429 31.2991436 4.97751429 31.2991436 5.54151429"></polygon>
                    <polygon id="Fill-19" fill="#000000" points="34.8551727 5.54151429 34.3840616 5.54151429 33.7719611 3.31037143 33.1598605 5.54151429 32.7119611 5.54151429 31.9580114 2.3478 32.5469002 2.3478 32.971588 4.36722857 33.5123341 2.3478 34.0547997 2.3478 34.5964055 4.36722857 35.0202336 2.3478 35.6091225 2.3478"></polygon>
                    <path d="M38.0579546,5.54151429 L37.8456107,4.8138 L36.7391873,4.8138 L36.5277032,5.54151429 L35.8915312,5.54151429 L36.9515312,2.3718 L37.6581979,2.3718 L38.7173382,5.54151429 L38.0579546,5.54151429 Z M37.2807932,3.02922857 L37.2807932,3.02922857 L36.8801768,4.29694286 L37.6814096,4.29694286 L37.2807932,3.02922857 Z" id="Fill-21" fill="#000000"></path>
                    <path d="M41.2373528,4.20308571 L41.8262417,5.54194286 L41.1668581,5.54194286 L40.6252522,4.29651429 L40.0836464,4.29651429 L40.0836464,5.54194286 L39.4474745,5.54194286 L39.4474745,2.34822857 L40.6725353,2.34822857 C41.5434031,2.34822857 41.8494534,2.7708 41.8494534,3.33394286 C41.8494534,3.80365714 41.5906861,4.06165714 41.2373528,4.20308571 M40.6484639,2.88822857 L40.059575,2.88822857 L40.059575,3.78051429 L40.6484639,3.78051429 C41.0017972,3.78051429 41.2141411,3.66308571 41.2141411,3.33394286 C41.2373528,3.0288 41.0490803,2.88822857 40.6484639,2.88822857" id="Fill-23" fill="#000000"></path>
                    <polygon id="Fill-25" fill="#000000" points="43.9696253 2.91154286 43.9696253 5.54125714 43.3575247 5.54125714 43.3575247 2.91154286 42.4625856 2.91154286 42.4625856 2.3484 44.8645645 2.3484 44.8645645 2.91154286"></polygon>
                    <g id="Group-29" transform="translate(0.000000, 7.089000)">
                        <mask id="mask-2" fill="white">
                            <use xlink:href="#path-1"></use>
                        </mask>
                        <g id="Clip-28"></g>
                        <polygon id="Fill-27" fill="#000000" mask="url(#mask-2)" points="16.1324607 16.2273429 13.8241882 16.2273429 10.5040584 4.60448571 10.4567753 4.60448571 7.13578589 16.2273429 4.85158475 16.2273429 -0.000515815085 0.1902 2.91985726 0.1902 6.02936253 11.5550571 6.07578589 11.5550571 9.32628062 0.1902 11.6577648 0.1902 14.9314712 11.5550571 15.0019659 11.5550571 18.1106115 0.1902 21.0069132 0.1902"></polygon>
                    </g>
                    <path d="M31.9347997,13.8070286 L24.1863974,13.8070286 C24.5870138,10.9656 26.0003471,9.41588571 27.978498,9.41588571 C30.3572652,9.43902857 31.6519611,11.0830286 31.9347997,13.8070286 M34.8319611,15.1218857 C34.8319611,10.9424571 32.617395,7.18474286 28.0017097,7.18474286 C23.9981249,7.18474286 21.1250349,10.3081714 21.1250349,15.3798857 C21.1250349,21.1570286 24.5638021,23.6453143 28.2140535,23.6453143 C31.2754161,23.6453143 33.2062839,22.2833143 34.6909716,20.2878857 L32.7824558,18.8076 C31.5582547,20.4516 30.2626991,21.2976 28.3318313,21.2976 C25.8825693,21.2976 24.2104688,19.3244571 24.1159027,15.8256 L34.8078897,15.8256 C34.8319611,15.7090286 34.8319611,15.2624571 34.8319611,15.1218857" id="Fill-30" fill="#000000"></path>
                    <path d="M47.7374826,19.2306857 C46.3241492,20.5455429 45.1704428,21.2038286 43.5456253,21.2038286 C41.2846358,21.2038286 39.5652522,19.1604 39.5652522,15.4035429 C39.5652522,11.6235429 41.1436464,9.62725714 43.4037762,9.62725714 C44.8403212,9.62725714 46.2777259,10.2615429 47.7374826,11.6698286 L47.7374826,19.2306857 Z M51.2235328,23.3166857 C50.8701995,22.4244 50.6810673,20.8515429 50.6810673,19.0198286 L50.6810673,-0.000171428571 L47.7374826,-0.000171428571 L47.7374826,9.22782857 C46.3009376,7.96011429 44.7234031,7.2084 42.7443925,7.2084 C39.4715458,7.2084 36.5743844,9.79182857 36.5743844,15.4035429 C36.5743844,21.0384 39.7303131,23.6218286 42.9799481,23.6218286 C45.0999481,23.6218286 46.5597048,22.5889714 47.7142709,21.4378286 C47.7374826,22.0961143 47.9025434,22.7295429 48.0676042,23.2926857 L51.2235328,23.2926857 L51.2235328,23.3166857 Z" id="Fill-32" fill="#000000"></path>
                    <path d="M63.6346456,19.2306857 C62.2213122,20.5455429 61.0676058,21.2038286 59.4427883,21.2038286 C57.1817989,21.2038286 55.4624152,19.1604 55.4624152,15.4035429 C55.4624152,11.6235429 57.1577275,9.62725714 59.418717,9.62725714 C60.8561217,9.62725714 62.1972409,10.2615429 63.6346456,11.6698286 L63.6346456,19.2306857 Z M67.1198362,23.3166857 C66.7673625,22.4244 66.5782303,20.8515429 66.5782303,19.0198286 L66.5782303,-0.000171428571 L63.6346456,-0.000171428571 L63.6346456,9.22782857 C62.1972409,7.96011429 60.8561217,7.2084 58.9003228,7.2084 C55.6274761,7.2084 52.4947591,9.79182857 52.4947591,15.4035429 C52.4947591,21.0384 55.6506878,23.6218286 58.9003228,23.6218286 C61.0203228,23.6218286 62.4800795,22.5889714 63.6346456,21.4378286 C63.6578573,22.0961143 63.8229181,22.7295429 63.9871192,23.2926857 L67.1198362,23.2926857 L67.1198362,23.3166857 Z" id="Fill-34" fill="#000000"></path>
                    <polygon id="Fill-36" fill="#000000" points="69.4751338 23.3164286 72.4419303 23.3164286 72.4419303 7.53728571 69.4751338 7.53728571"></polygon>
                    <path d="M69.4518362,4.50814286 C69.4518362,3.687 70.1112198,3.00557143 70.9588759,3.00557143 C71.7833204,3.00557143 72.4659157,3.663 72.4659157,4.50814286 C72.4659157,5.33014286 71.806532,6.01071429 70.9588759,6.01071429 C70.1112198,5.98757143 69.4518362,5.33014286 69.4518362,4.50814286" id="Fill-38" fill="#000000"></path>
                    <path d="M85.1126699,23.3163429 L85.1126699,12.0457714 C85.1126699,10.5192 84.5710641,9.58062857 82.8516805,9.58062857 C81.2268629,9.58062857 79.8367413,10.4257714 78.1182174,12.0457714 L78.1182174,23.3163429 L75.1737729,23.3163429 L75.1737729,7.5372 L78.1182174,7.5372 L78.1182174,9.86177143 C79.3897015,8.68834286 81.2268629,7.20891429 83.8411857,7.20891429 C86.6910641,7.20891429 88.0571144,8.82891429 88.0571144,11.5289143 L88.0571144,23.2932 L85.1126699,23.2932" id="Fill-40" fill="#000000"></path>
                    <path d="M111.395426,23.6453143 C108.192214,23.6453143 106.144428,22.3304571 104.989862,20.8510286 L106.943942,19.2070286 C107.957518,20.4053143 109.464558,21.3438857 111.442709,21.3438857 C113.820616,21.3438857 114.881476,20.4756 114.881476,19.1607429 C114.881476,17.6813143 113.891971,16.9998857 110.994809,16.3424571 C107.297275,15.4741714 105.531468,14.4173143 105.531468,11.5998857 C105.531468,9.32245714 107.67468,7.25502857 111.324931,7.25502857 C114.17395,7.25502857 115.963828,8.31188571 117.142466,9.50931429 L115.423082,11.4353143 C114.244444,10.2378857 113.021103,9.58045714 111.277648,9.58045714 C109.34678,9.58045714 108.404558,10.4256 108.404558,11.4121714 C108.404558,12.6327429 109.157648,13.2430286 111.771971,13.8541714 C115.658637,14.7927429 117.777778,15.8967429 117.777778,18.9027429 C117.753706,21.5316 115.587283,23.6453143 111.395426,23.6453143" id="Fill-42" fill="#000000"></path>
                    <path d="M92.766764,12.8205429 C92.766764,10.6365429 94.1800973,9.2514 96.3465207,9.2514 C98.4897324,9.2514 99.9967721,10.7308286 99.9967721,12.8205429 C99.9967721,14.9574 98.5602271,16.3425429 96.3465207,16.3425429 C94.2505921,16.3425429 92.766764,14.8871143 92.766764,12.8205429 M91.8718248,24.8428286 C91.8718248,23.8331143 92.6257745,22.9879714 93.9445418,22.5182571 L94.579854,22.6125429 L98.1596107,22.9168286 C100.656156,23.1285429 101.574307,23.6685429 101.574307,24.9602571 C101.574307,26.3694 99.9030657,27.1674 96.8408435,27.1674 C93.5912084,27.1674 91.8718248,26.3454 91.8718248,24.8428286 M89.893674,12.8205429 C89.893674,14.7696857 90.8126845,16.3665429 92.4366423,17.3754 C91.0946634,18.1039714 90.4120681,18.9491143 90.4120681,19.9116857 C90.4120681,20.7576857 90.8591079,21.3911143 91.7781184,21.8839714 C90.0819465,22.5654 89.0933009,23.7388286 89.0933009,25.1711143 C89.0933009,27.8719714 91.8013301,29.3745429 96.699854,29.3745429 C101.551095,29.3745429 104.306407,27.6371143 104.306407,24.6311143 C104.306407,22.1899714 102.516529,20.8279714 99.0081265,20.5459714 L95.1455312,20.2168286 C93.4261476,20.0531143 93.1200973,19.7702571 93.1200973,19.2542571 C93.1200973,18.8316857 93.4493593,18.4322571 94.0855312,18.1039714 C94.7681265,18.3379714 95.5452879,18.4802571 96.3465207,18.4802571 C99.5961557,18.4802571 102.869862,16.5302571 102.869862,12.8436857 C102.869862,11.8579714 102.611095,10.8954 102.116772,10.0734 C103.082206,10.0502571 104.070852,9.69711429 105.060357,9.01654286 L105.10678,8.9694 L103.482822,7.3494 L103.435539,7.3734 C102.658378,7.8894 102.069489,8.07711429 101.245045,8.07711429 C100.656156,8.07711429 100.161833,8.00682857 99.7844282,7.8894 L98.6780049,7.53711429 C98.0426926,7.32625714 97.1709651,7.18462486 96.3465207,7.18462486 C93.143309,7.16168571 89.893674,9.11082857 89.893674,12.8205429" id="Fill-44" fill="#000000"></path>
                </g>
            </g>
        </g>
    </g>
</svg>