<?xml version="1.0" encoding="UTF-8"?>
<svg width="111px" height="30px" viewBox="0 0 111 30" version="1.1" xmlns="http://www.w3.org/2000/svg" xmlns:xlink="http://www.w3.org/1999/xlink">
    <!-- Generator: Sketch 63.1 (92452) - https://sketch.com -->
    <title>Group 9</title>
    <desc>Created with Sketch.</desc>
    <g id="Page-1" stroke="none" stroke-width="1" fill="none" fill-rule="evenodd">
        <g id="Home" transform="translate(-59.000000, -835.000000)" fill="#010202">
            <g id="Group-11" transform="translate(59.000000, 828.000000)">
                <g id="Group-9" transform="translate(0.000000, 7.000000)">
                    <polygon id="Fill-1" points="18.7441438 1.66666667 18.7441438 1.95215016 21.2098748 1.95215016 14.9380792 22.2425582 7.51009486 1.95215016 9.95529819 1.95215016 9.95529819 1.66666667 0 1.66666667 0 1.95215016 2.61908445 1.95215016 12.902221 30 21.741782 1.95215016 24.1151386 1.95215016 24.1151386 1.66666667"></polygon>
                    <g id="Group-8" transform="translate(20.788913, 0.000000)">
                        <path d="M45.0325076,0.418630952 L45.0325076,10.0519643 L44.8115364,10.0519643 C44.4003997,8.15553571 43.8174623,6.30910714 42.8038384,4.63470238 C41.5988641,2.67815476 39.6818057,0.479345238 37.1818099,0.479345238 C31.4395209,0.479345238 30.9176023,10.818631 30.9176023,14.7626786 C30.9176023,18.2930357 31.1984075,21.9341071 32.4732869,25.2430357 C33.3672428,27.5632738 34.6616719,28.7031548 37.0615494,28.7031548 C38.9691291,28.7031548 40.9969694,27.7347024 42.0105933,26.0704167 C42.2718487,25.6358929 42.2913985,25.1519643 42.2913985,24.6579167 L42.2913985,24.5876786 L42.2913985,17.213869 L39.781924,17.213869 L39.781924,16.9210119 L48.9679276,16.9210119 L48.9679276,17.213869 L46.8198269,17.213869 L46.8198269,28.3495833 L46.6284765,28.3495833 C46.0864158,27.44125 45.2333367,26.8466071 44.1385518,26.8466071 C43.3458991,26.8466071 42.5727961,27.1293452 41.8802617,27.5126786 L41.2576324,27.8555357 C39.8524215,28.481131 38.5064522,28.9347024 36.9507676,28.9347024 C29.8228174,28.9347024 26.0278001,21.2989881 26.0278001,14.9644643 C26.0278001,10.3341071 27.7849061,5.38113095 31.5194971,2.4864881 C33.1966269,1.18529762 35.2238747,0.226964286 37.3826389,0.226964286 C38.2262394,0.226964286 39.0591764,0.489464286 39.841758,0.801964286 L40.4146244,1.0239881 C41.0668745,1.26565476 41.779551,1.49779762 42.4821564,1.49779762 C43.3559701,1.49779762 44.1385518,0.922797619 44.8115364,0.418630952 L45.0325076,0.418630952 Z" id="Fill-2"></path>
                        <path d="M47.7729651,0.902857143 L57.5715269,0.902857143 L57.5715269,1.185 L54.9708204,1.185 L54.9708204,22.56 C54.9708204,25.9088095 58.4044639,27.9463095 61.4068286,27.9463095 C64.6390507,27.9463095 67.3600177,25.6867857 67.3600177,22.3683333 L67.3600177,1.185 L64.2877479,1.185 L64.2877479,0.902857143 L89.5762128,0.902857143 L89.5762128,10.8183333 L89.3854548,10.8183333 C89.0945785,8.19571429 88.5928021,5.50285714 86.7954117,3.45464286 C84.9784716,1.38678571 82.508689,1.185 79.9690013,1.185 L77.2284846,1.185 L77.2284846,13.9355952 C77.790095,13.9957143 78.3629614,14.0361905 78.9352353,14.0361905 C82.3783575,14.0361905 83.2717209,11.6558333 83.422787,8.71 L83.673379,8.71 L83.673379,19.8969048 L83.422787,19.8969048 C82.9909157,17.2236905 81.8161546,14.3588095 78.6935295,14.3588095 C78.2018242,14.3588095 77.7201899,14.3891667 77.2284846,14.4296429 L77.2284846,28.0671429 L81.333928,28.0671429 C83.4624789,28.0671429 85.5809588,27.1391667 87.086288,25.6463095 C88.3718309,24.3754762 89.2651943,22.7207143 89.5762128,20.9355952 C89.747421,19.937381 89.8273972,18.9183333 89.8777525,17.9094048 L90.0981313,17.9094048 L90.0981313,28.3492857 L70.3309843,28.3492857 L70.3309843,28.0671429 L72.6301511,28.0671429 L72.6301511,1.185 L67.7711544,1.185 L67.7711544,22.4486905 C67.7711544,26.8469048 63.6147633,28.7933333 59.7196276,28.7933333 C55.3126445,28.7933333 50.4530554,26.6445238 50.4530554,21.5814286 L50.4530554,1.185 L47.7729651,1.185 L47.7729651,0.902857143 Z" id="Fill-4"></path>
                        <path d="M11.8727882,28.7529167 C6.47173088,28.7529167 5.05644889,18.746369 5.05644889,14.7320833 C5.05644889,10.7177976 6.46165981,0.721369048 11.8727882,0.721369048 C17.2637744,0.721369048 18.6891275,10.7279167 18.6891275,14.7320833 C18.6891275,18.7368452 17.2637744,28.7529167 11.8727882,28.7529167 M20.2353335,4.61482143 C18.2578486,2.1535119 15.1755078,0.307678571 11.9634279,0.307678571 C8.46935787,0.307678571 5.32718303,2.25470238 3.23891638,4.97791667 C1.12102893,7.75172619 0.0967415444,11.2523214 0.0967415444,14.7320833 C0.0967415444,18.3529167 1.21107617,22.0154167 3.50017187,24.8493452 C5.50786994,27.3410119 8.6103529,29.1666071 11.8526461,29.1666071 C15.3159104,29.1666071 18.4385355,27.1898214 20.50666,24.48625 C22.6144764,21.7124405 23.6488349,18.2124405 23.6488349,14.7422024 C23.6488349,11.1207738 22.5143581,7.44934524 20.2353335,4.61482143" id="Fill-6"></path>
                    </g>
                </g>
            </g>
        </g>
    </g>
</svg>